<?xml version="1.0" encoding="UTF-8" standalone="no"?>
<!-- Created with Inkscape (http://www.inkscape.org/) -->

<svg
   width="34.924995mm"
   height="34.925011mm"
   viewBox="0 0 34.924995 34.925011"
   version="1.1"
   id="svg1"
   xml:space="preserve"
   inkscape:version="1.4 (e7c3feb100, 2024-10-09)"
   sodipodi:docname="discord.svg"
   xmlns:inkscape="http://www.inkscape.org/namespaces/inkscape"
   xmlns:sodipodi="http://sodipodi.sourceforge.net/DTD/sodipodi-0.dtd"
   xmlns="http://www.w3.org/2000/svg"
   xmlns:svg="http://www.w3.org/2000/svg"><sodipodi:namedview
     id="namedview1"
     pagecolor="#ffffff"
     bordercolor="#000000"
     borderopacity="0.25"
     inkscape:showpageshadow="2"
     inkscape:pageopacity="0.0"
     inkscape:pagecheckerboard="0"
     inkscape:deskcolor="#d1d1d1"
     inkscape:document-units="mm"
     showgrid="false"
     inkscape:zoom="1.3843855"
     inkscape:cx="37.561791"
     inkscape:cy="15.169185"
     inkscape:window-width="2880"
     inkscape:window-height="1839"
     inkscape:window-x="0"
     inkscape:window-y="0"
     inkscape:window-maximized="1"
     inkscape:current-layer="layer1" /><defs
     id="defs1" /><g
     inkscape:label="Layer 1"
     inkscape:groupmode="layer"
     id="layer1"
     transform="translate(-94.894754,-144.39874)"><path
       style="fill:#000000"
       d="m 94.894754,161.86125 v -17.46251 h 17.462496 17.4625 v 17.46251 17.4625 h -17.4625 -17.462496 z m 9.524996,11.64166 v -3.70416 h -3.70416 -3.704166 v 3.70416 3.70417 h 3.704166 3.70416 z m -6.349996,0 v -2.64583 h 2.645836 2.64583 v 2.64583 2.64584 h -2.64583 -2.645836 z m 4.233336,0 v -1.5875 h -1.5875 -1.587496 v 1.5875 1.5875 h 1.587496 1.5875 z m 4.23333,3.175 v -0.52916 h 1.05833 1.05834 v -0.52917 -0.52917 h 1.05833 1.05833 v -0.52916 -0.52917 h 0.52917 0.52917 v -0.52917 -0.52916 h -0.52917 -0.52917 v -0.52917 -0.52917 h -0.52916 -0.52917 v 0.52917 0.52917 h -0.52917 -0.52916 v -0.52917 -0.52917 h -0.52917 -0.52917 v 0.52917 0.52917 h -1.05833 -1.05833 v 0.52916 0.52917 h 1.05833 1.05833 v 0.52917 0.52916 h -0.52916 -0.52917 v 0.52917 0.52917 h -0.52917 -0.52916 v 0.52916 0.52917 h 0.52916 0.52917 z m 8.46667,0 v -0.52916 h 0.52916 0.52917 v 0.52916 0.52917 h 0.52917 0.52916 v -0.52917 -0.52916 h 0.52917 0.52917 v 0.52916 0.52917 h 0.52916 0.52917 v -1.5875 -1.5875 h 1.05833 1.05834 v -0.52917 -0.52916 h 0.52916 0.52917 v 2.11666 2.11667 h 0.52917 0.52916 v -1.05833 -1.05834 h 1.05834 1.05833 v 1.05834 1.05833 h 0.52917 0.52916 v -1.05833 -1.05834 h 0.52917 0.52917 v -1.05833 -1.05833 h -0.52917 -0.52917 v 1.05833 1.05833 h -0.52916 -0.52917 v -1.05833 -1.05833 h -1.05833 -1.05834 v -0.52917 -0.52917 h 1.05834 1.05833 v -0.52916 -0.52917 h 0.52917 0.52916 v 0.52917 0.52916 h 0.52917 0.52917 v -0.52916 -0.52917 h -0.52917 -0.52917 v -0.52917 -0.52916 h 0.52917 0.52917 v -0.52917 -0.52917 h -1.05834 -1.05833 v -0.52916 -0.52917 h 1.05833 1.05834 v -1.5875 -1.5875 h -0.52917 -0.52917 v -1.05833 -1.05834 h 0.52917 0.52917 v -0.52916 -0.52917 h -2.11667 -2.11667 v 0.52917 0.52916 h -0.52916 -0.52917 v -0.52916 -0.52917 h -0.52917 -0.52916 v 0.52917 0.52916 h -0.52917 -0.52917 v -1.05833 -1.05833 h 1.05834 1.05833 v -0.52917 -0.52917 h -1.05833 -1.05834 v -0.52916 -0.52917 h 1.05834 1.05833 v -0.52917 -0.52917 h -0.52917 -0.52916 v -0.52916 -0.52917 h 0.52916 0.52917 v -0.52917 -0.52916 h -0.52917 -0.52916 v 0.52916 0.52917 h -0.52917 -0.52917 v -0.52917 -0.52916 h -0.52916 -0.52917 v -1.5875 -1.5875 h -1.05833 -1.05834 v -1.05834 -1.05833 h -0.52916 -0.52917 v -0.52917 -0.52916 h -0.52917 -0.52916 v -0.52917 -0.52917 h -0.52917 -0.52917 v 0.52917 0.52917 h -1.05833 -1.05833 v 0.52916 0.52917 h -0.52917 -0.52917 v -1.05833 -1.05834 h -0.52916 -0.52917 v -0.52916 -0.52917 h -1.5875 -1.5875 v 0.52917 0.52916 h 1.5875 1.5875 v 0.52917 0.52917 h -1.05833 -1.05834 v 1.05833 1.05833 h 0.52917 0.52917 v -0.52916 -0.52917 h 0.52916 0.52917 v 1.05833 1.05834 h -1.05833 -1.05834 v 1.05833 1.05833 h -0.52916 -0.52917 v -1.05833 -1.05833 h -0.52917 -0.52916 v 1.05833 1.05833 h 0.52916 0.52917 v 0.52917 0.52917 h -0.52917 -0.52916 v 0.52916 0.52917 h -0.52917 -0.52917 v -0.52917 -0.52916 h -1.05833 -1.05833 v 1.05833 1.05833 h -0.52917 -0.52917 v -1.05833 -1.05833 h -0.52916 -0.52917 v 0.52916 0.52917 h -0.529166 -0.52916 v 0.52917 0.52916 h -0.52917 -0.52917 v -1.05833 -1.05833 h -0.52916 -0.52917 v 1.05833 1.05833 h 0.52917 0.52916 v 0.52917 0.52917 h 0.52917 0.52917 v 1.05833 1.05834 h -1.05834 -1.05833 v 0.52916 0.52917 h 1.05833 1.05834 v -0.52917 -0.52916 h 0.52916 0.529166 v 0.52916 0.52917 h 0.52917 0.52916 v 0.52917 0.52916 h -2.116656 -2.11667 v 1.05834 1.05833 h 1.5875 1.587496 v 0.52917 0.52916 h 0.52917 0.52916 v 0.52917 0.52917 h -1.05833 -1.058326 v 1.05833 1.05833 h 1.587496 1.5875 v -0.52916 -0.52917 h 0.52916 0.52917 v 0.52917 0.52916 h 1.05833 1.05834 v 0.52917 0.52917 h 1.05833 1.05833 v -0.52917 -0.52917 h 1.5875 1.5875 v -0.52916 -0.52917 h -1.5875 -1.5875 v -0.52917 -0.52916 h 0.52917 0.52917 v -1.5875 -1.5875 h 1.05833 1.05833 v 0.52916 0.52917 h -0.52916 -0.52917 v 0.52917 0.52916 h 1.05833 1.05834 v 1.05834 1.05833 h 0.52916 0.52917 v 0.52917 0.52916 h -0.52917 -0.52916 v 0.52917 0.52917 h 1.05833 1.05833 v 0.52916 0.52917 h -1.05833 -1.05833 v 0.52917 0.52916 h 1.05833 1.05833 v 0.52917 0.52917 h -0.52916 -0.52917 v 1.05833 1.05833 h -0.52917 -0.52916 v 1.05834 1.05833 h 1.5875 1.5875 z m -2.11667,-1.05833 v -0.52917 h 0.52917 0.52916 v 0.52917 0.52917 h -0.52916 -0.52917 z m 1.05833,-2.11667 v -0.52916 h 0.52917 0.52917 v -0.52917 -0.52917 h -0.52917 -0.52917 v -0.52916 -0.52917 h 0.52917 0.52917 v 0.52917 0.52916 h 0.52916 0.52917 v -1.05833 -1.05833 h -1.05833 -1.05834 v -1.05834 -1.05833 h -0.52916 -0.52917 v -0.52917 -0.52916 h 1.05833 1.05834 v -1.05834 -1.05833 h -1.5875 -1.5875 v -0.52917 -0.52916 h -0.52917 -0.52917 v -0.52917 -0.52917 h 1.05834 1.05833 v -0.52916 -0.52917 h 1.5875 1.5875 v 0.52917 0.52916 h 0.52917 0.52916 v -0.52916 -0.52917 h 0.52917 0.52917 v -0.52917 -0.52916 h 0.52916 0.52917 v 0.52916 0.52917 h -0.52917 -0.52916 v 1.05833 1.05834 h -0.52917 -0.52917 v 0.52916 0.52917 h 1.5875 1.5875 v -0.52917 -0.52916 h -0.52916 -0.52917 v -0.52917 -0.52917 h 0.52917 0.52916 v 0.52917 0.52917 h 0.52917 0.52917 v -0.52917 -0.52917 h 0.52916 0.52917 v 0.52917 0.52917 h 1.05833 1.05834 v -0.52917 -0.52917 h 0.52916 0.52917 v 1.05834 1.05833 h 0.52917 0.52916 v 0.52917 0.52916 h -0.52916 -0.52917 v 1.05834 1.05833 h -0.52917 -0.52916 v 1.05833 1.05834 h 0.52916 0.52917 v 0.52916 0.52917 h -1.05833 -1.05834 v -2.64583 -2.64584 h -0.52916 -0.52917 v -0.52916 -0.52917 h -1.05833 -1.05834 v 1.05833 1.05834 h -0.52916 -0.52917 v 0.52916 0.52917 h -0.52917 -0.52916 v 2.64583 2.64584 h -0.52917 -0.52917 v 0.52916 0.52917 h -0.52916 -0.52917 v -0.52917 -0.52916 h -0.52917 -0.52916 v 0.52916 0.52917 h -0.52917 -0.52917 z m 3.175,-5.29166 v -0.52917 h 0.52917 0.52917 v -0.52917 -0.52916 h 0.52916 0.52917 v -0.52917 -0.52917 h -0.52917 -0.52916 v 0.52917 0.52917 h -0.52917 -0.52917 v 0.52916 0.52917 h -0.52916 -0.52917 v -0.52917 -0.52916 h -0.52917 -0.52916 v 1.05833 1.05833 h 1.05833 1.05833 z m 7.40834,-3.175 v -0.52917 h -0.52917 -0.52917 v 0.52917 0.52916 h 0.52917 0.52917 z m -8.46667,-1.5875 v -1.05834 h -0.52917 -0.52916 v 1.05834 1.05833 h 0.52916 0.52917 z m -2.11667,-0.52917 v -0.52917 h -0.52916 -0.52917 v 0.52917 0.52917 h 0.52917 0.52916 z m 5.29167,7.40833 v -1.5875 h 1.5875 1.5875 v 1.5875 1.5875 h -1.5875 -1.5875 z m 2.11667,0 v -0.52916 h -0.52917 -0.52917 v 0.52916 0.52917 h 0.52917 0.52917 z m -14.81667,-2.11666 v -0.52917 h 0.52917 0.52916 v 0.52917 0.52916 h -0.52916 -0.52917 z m -3.175,-1.05834 v -0.52916 h 0.52917 0.52916 v 0.52916 0.52917 h -0.52916 -0.52917 z m 2.11667,-1.05833 v -0.52917 h -1.05834 -1.05833 v -0.52916 -0.52917 h -0.52917 -0.52916 v 0.52917 0.52916 h -0.52917 -0.52917 v -0.52916 -0.52917 h -0.52916 -0.52917 v -0.52917 -0.52916 h 0.52917 0.52916 v -0.52917 -0.52917 h 0.52917 0.52917 v -0.52916 -0.52917 h 0.52916 0.52917 v -0.52917 -0.52916 h 0.52917 0.52916 v -0.52917 -0.52917 h -1.05833 -1.05833 v 0.52917 0.52917 h -0.52917 -0.52917 v -0.52917 -0.52917 h -0.52916 -0.52917 v -1.05833 -1.05834 h 0.52917 0.52916 v 1.05834 1.05833 h 0.52917 0.52917 v -0.52916 -0.52917 h 1.5875 1.5875 v -1.05834 -1.05833 h 1.05833 1.05833 v 0.52917 0.52916 h 0.52917 0.52917 v -1.05833 -1.05833 h -0.52917 -0.52917 v -0.52917 -0.52917 h 0.52917 0.52917 v -0.52916 -0.52917 h 0.52916 0.52917 v -0.52917 -0.52916 h 0.52917 0.52916 v -0.52917 -0.52917 h 0.52917 0.52917 v -0.52916 -0.52917 h 1.05833 1.05833 v -0.52917 -0.52916 h 0.52917 0.52917 v 0.52916 0.52917 h 0.52916 0.52917 v 1.05833 1.05834 h 0.52917 0.52916 v 0.52916 0.52917 h 0.52917 0.52917 v 1.05833 1.05834 h 0.52916 0.52917 v 0.52916 0.52917 h -0.52917 -0.52916 v 0.52917 0.52916 h 1.05833 1.05833 v 0.52917 0.52917 h -0.52916 -0.52917 v 0.52917 0.52916 h -1.05833 -1.05834 v 0.52917 0.52917 h -0.52916 -0.52917 v -0.52917 -0.52917 h -0.52917 -0.52916 v 0.52917 0.52917 h -0.52917 -0.52917 v -0.52917 -0.52917 h -1.05833 -1.05833 v 0.52917 0.52917 h -0.52917 -0.52917 v 0.52916 0.52917 h -1.05833 -1.05833 v 1.05833 1.05834 h -0.52917 -0.52917 v 0.52916 0.52917 h -0.52916 -0.52917 v -0.52917 -0.52916 h -0.52917 -0.52916 v 1.05833 1.05833 h 0.52916 0.52917 v 0.52917 0.52917 h -0.52917 -0.52916 z m -1.05834,-2.11667 v -0.52916 h 0.52917 0.52917 v -0.52917 -0.52917 h 0.52916 0.52917 v 0.52917 0.52917 h 0.52917 0.52916 v -2.11667 -2.11667 h 0.52917 0.52917 v -0.52916 -0.52917 h -0.52917 -0.52917 v -0.52917 -0.52917 h -0.52916 -0.52917 v 2.11667 2.11667 h -1.5875 -1.5875 v 0.52917 0.52916 h 0.52917 0.52916 v 0.52917 0.52917 h -0.52916 -0.52917 v 0.52916 0.52917 h 0.52917 0.52916 z m 6.35,-4.23333 v -0.52917 h 0.52917 0.52917 v -0.52916 -0.52917 h 1.05833 1.05833 v 0.52917 0.52916 h 0.52917 0.52917 v -0.52916 -0.52917 h 0.52916 0.52917 v 0.52917 0.52916 h 0.52917 0.52916 v -0.52916 -0.52917 h 0.52917 0.52917 v -0.52917 -0.52917 h -0.52917 -0.52917 v 0.52917 0.52917 h -0.52916 -0.52917 v -0.52917 -0.52917 h -0.52917 -0.52916 v -1.05833 -1.05833 h 1.05833 1.05833 v -1.05834 -1.05833 h -0.52916 -0.52917 v -0.52917 -0.52916 h -1.5875 -1.5875 v 0.52916 0.52917 h -0.52917 -0.52916 v 0.52917 0.52916 h -0.52917 -0.52917 v -0.52916 -0.52917 h -0.52916 -0.52917 v 0.52917 0.52916 h -0.52917 -0.52916 v 0.52917 0.52917 h 0.52916 0.52917 v 0.52916 0.52917 h 0.52917 0.52916 v 0.52917 0.52916 h -0.52916 -0.52917 v 1.58751 1.5875 h 0.52917 0.52916 z m 3.175,-2.11667 v -0.52917 h 0.52917 0.52917 v 0.52917 0.52917 h -0.52917 -0.52917 z m -2.11666,-1.05833 v -0.52917 h -0.52917 -0.52917 v -0.52917 -0.52916 h 0.52917 0.52917 v -0.52917 -0.52917 h 0.52916 0.52917 v -0.52916 -0.52917 h 0.52917 0.52916 v 0.52917 0.52916 h -0.52916 -0.52917 v 0.52917 0.52917 h 0.52917 0.52916 v 0.52916 0.52917 h -0.52916 -0.52917 v 0.52917 0.52916 h -0.52917 -0.52916 z m 1.05833,-1.05834 v -0.52916 h -0.52917 -0.52916 v 0.52916 0.52917 h 0.52916 0.52917 z m 2.11667,-2.11666 v -0.52917 h 0.52916 0.52917 v 0.52917 0.52916 h -0.52917 -0.52916 z m 0,-3.175 v -0.52917 h -0.52917 -0.52917 v 0.52917 0.52916 h 0.52917 0.52917 z m -11.64167,6.35 v -0.52917 h 0.52917 0.52916 v 0.52917 0.52916 h -0.52916 -0.52917 z m 17.99167,19.57917 v -1.05834 h -0.52917 -0.52917 v 1.05834 1.05833 h 0.52917 0.52917 z m -14.81667,-4.7625 v -0.52917 h -0.52917 -0.52916 v 0.52917 0.52916 h 0.52916 0.52917 z m 4.23333,-1.05834 v -0.52916 h -1.05833 -1.05833 v 0.52916 0.52917 h 1.05833 1.05833 z m -12.699996,-2.11666 v -0.52917 h -0.52916 -0.52917 v 0.52917 0.52916 h 0.52917 0.52916 z m 0,-2.11667 v -0.52917 h -0.52916 -0.52917 v 0.52917 0.52917 h 0.52917 0.52916 z m 26.458336,-6.35 v -0.52917 h 0.52916 0.52917 v 0.52917 0.52917 h 1.05833 1.05834 v -0.52917 -0.52917 h -0.52917 -0.52917 v -1.05833 -1.05834 h 0.52917 0.52917 v -0.52916 -0.52917 h -0.52917 -0.52917 v 0.52917 0.52916 h -1.05833 -1.05833 v -0.52916 -0.52917 h -0.52917 -0.52917 v 1.05833 1.05834 h 0.52917 0.52917 v 0.52917 0.52916 h -0.52917 -0.52917 v 0.52917 0.52917 h 0.52917 0.52917 z m -20.10834,-9.525 v -3.70417 h -3.70416 -3.704166 v 3.70417 3.70416 h 3.704166 3.70416 z m -6.349996,0 v -2.64584 h 2.645836 2.64583 v 2.64584 2.64583 h -2.64583 -2.645836 z m 4.233336,0 v -1.5875 h -1.5875 -1.587496 v 1.5875 1.5875 h 1.587496 1.5875 z m 25.4,0 v -3.70417 h -3.70417 -3.70417 v 3.70417 3.70416 h 3.70417 3.70417 z m -6.35,0 v -2.64584 h 2.64583 2.64583 v 2.64584 2.64583 h -2.64583 -2.64583 z m 4.23333,0 v -1.5875 h -1.5875 -1.5875 v 1.5875 1.5875 h 1.5875 1.5875 z m -6.35,-2.11667 v -0.52917 h -0.52917 -0.52916 v -0.52916 -0.52917 h -0.52917 -0.52917 v 0.52917 0.52916 h 0.52917 0.52917 v 0.52917 0.52917 h 0.52916 0.52917 z m -6.35,-1.05833 v -0.52917 h -0.52917 -0.52916 v 0.52917 0.52916 h 0.52916 0.52917 z"
       id="path1" /></g></svg>
