<?xml version="1.0" encoding="UTF-8" standalone="no"?>
<!-- Created with Inkscape (http://www.inkscape.org/) -->

<svg
   width="34.924999mm"
   height="34.924995mm"
   viewBox="0 0 34.924999 34.924995"
   version="1.1"
   id="svg1"
   xml:space="preserve"
   inkscape:version="1.4 (e7c3feb100, 2024-10-09)"
   sodipodi:docname="join.svg"
   xmlns:inkscape="http://www.inkscape.org/namespaces/inkscape"
   xmlns:sodipodi="http://sodipodi.sourceforge.net/DTD/sodipodi-0.dtd"
   xmlns="http://www.w3.org/2000/svg"
   xmlns:svg="http://www.w3.org/2000/svg"><sodipodi:namedview
     id="namedview1"
     pagecolor="#ffffff"
     bordercolor="#000000"
     borderopacity="0.25"
     inkscape:showpageshadow="2"
     inkscape:pageopacity="0.0"
     inkscape:pagecheckerboard="0"
     inkscape:deskcolor="#d1d1d1"
     inkscape:document-units="mm"
     inkscape:zoom="5.1381537"
     inkscape:cx="53.131925"
     inkscape:cy="80.379067"
     inkscape:window-width="2880"
     inkscape:window-height="1839"
     inkscape:window-x="0"
     inkscape:window-y="0"
     inkscape:window-maximized="1"
     inkscape:current-layer="layer1" /><defs
     id="defs1" /><g
     inkscape:label="Layer 1"
     inkscape:groupmode="layer"
     id="layer1"
     transform="translate(-49.004828,-88.928126)"><path
       style="fill:#000000"
       d="M 49.004828,106.39063 V 88.928126 h 17.462499 17.4625 v 17.462504 17.46249 h -17.4625 -17.462499 z m 9.525,11.64166 v -3.70416 h -3.704167 -3.704167 v 3.70416 3.70417 h 3.704167 3.704167 z m -6.35,0 v -2.64583 h 2.645833 2.645833 v 2.64583 2.64583 h -2.645833 -2.645833 z m 4.233333,0 v -1.5875 h -1.5875 -1.5875 v 1.5875 1.5875 h 1.5875 1.5875 z m 4.233333,3.175 v -0.52917 h 1.058334 1.058333 v -0.52916 -0.52917 h 1.058333 1.058333 v -0.52917 -0.52916 h 0.529167 0.529167 v -0.52917 -0.52916 h -0.529167 -0.529167 v -0.52917 -0.52917 h -0.529166 -0.529167 v 0.52917 0.52917 h -0.529166 -0.529167 v -0.52917 -0.52917 h -0.529167 -0.529166 v 0.52917 0.52917 h -1.058334 -1.058333 v 0.52916 0.52917 h 1.058333 1.058334 v 0.52916 0.52917 h -0.529167 -0.529167 v 0.52917 0.52916 h -0.529166 -0.529167 v 0.52917 0.52917 h 0.529167 0.529166 z m 8.466667,0 v -0.52917 h 0.529166 0.529167 v 0.52917 0.52917 h 0.529167 0.529166 v -0.52917 -0.52917 h 0.529167 0.529167 v 0.52917 0.52917 h 0.529166 0.529167 v -1.5875 -1.5875 h 1.058333 1.058334 v -0.52917 -0.52916 h 0.529166 0.529167 v 2.11666 2.11667 h 0.529167 0.529166 v -1.05834 -1.05833 h 1.058334 1.058333 v 1.05833 1.05834 h 0.529166 0.529167 v -1.05834 -1.05833 h 0.529167 0.529166 v -1.05833 -1.05833 h -0.529166 -0.529167 v 1.05833 1.05833 H 80.22566 79.696494 v -1.05833 -1.05833 h -1.058333 -1.058334 v -0.52917 -0.52917 h 1.058334 1.058333 v -0.52916 -0.52917 h 0.529166 0.529167 v 0.52917 0.52916 h 0.529167 0.529166 v -0.52916 -0.52917 h -0.529166 -0.529167 v -0.52917 -0.52916 h 0.529167 0.529166 v -0.52917 -0.52917 h -1.058333 -1.058333 v -0.52916 -0.52917 h 1.058333 1.058333 v -1.5875 -1.5875 h -0.529166 -0.529167 v -1.05833 -1.05834 h 0.529167 0.529166 v -0.52916 -0.52917 h -2.116666 -2.116667 v 0.52917 0.52916 h -0.529166 -0.529167 v -0.52916 -0.52917 h -0.529167 -0.529166 v 0.52917 0.52916 h -0.529167 -0.529167 v -1.05833 -1.05833 h 1.058334 1.058333 v -0.52917 -0.52917 h -1.058333 -1.058334 v -0.52916 -0.52917 h 1.058334 1.058333 v -0.52917 -0.52916 h -0.529167 -0.529166 v -0.52917 -0.52917 h 0.529166 0.529167 v -0.52916 -0.529174 h -0.529167 -0.529166 v 0.529174 0.52916 h -0.529167 -0.529167 v -0.52916 -0.529174 h -0.529166 -0.529167 v -1.5875 -1.5875 h -1.058333 -1.058334 v -1.05833 -1.05834 h -0.529166 -0.529167 v -0.52916 -0.52917 h -0.529167 -0.529166 v -0.52917 -0.52916 h -0.529167 -0.529167 v 0.52916 0.52917 h -1.058333 -1.058333 v 0.52917 0.52916 h -0.529167 -0.529167 v -1.05833 -1.05833 h -0.529166 -0.529167 v -0.52917 -0.52917 h -1.5875 -1.5875 v 0.52917 0.52917 h 1.5875 1.5875 v 0.52916 0.52917 h -1.058333 -1.058333 v 1.05833 1.05834 h 0.529166 0.529167 v -0.52917 -0.52917 h 0.529167 0.529166 v 1.05834 1.05833 h -1.058333 -1.058333 v 1.05833 1.05834 h -0.529167 -0.529167 v -1.05834 -1.05833 h -0.529166 -0.529167 v 1.05833 1.05834 h 0.529167 0.529166 v 0.52916 0.52917 h -0.529166 -0.529167 v 0.529174 0.52916 h -0.529167 -0.529166 v -0.52916 -0.529174 h -1.058334 -1.058333 v 1.058334 1.05834 h -0.529167 -0.529166 v -1.05834 -1.058334 h -0.529167 -0.529167 v 0.529174 0.52916 h -0.529166 -0.529167 v 0.52917 0.52917 h -0.529167 -0.529166 v -1.05834 -1.058334 h -0.529167 -0.529167 v 1.058334 1.05834 h 0.529167 0.529167 v 0.52916 0.52917 h 0.529166 0.529167 v 1.05833 1.05834 h -1.058333 -1.058334 v 0.52916 0.52917 h 1.058334 1.058333 v -0.52917 -0.52916 h 0.529167 0.529166 v 0.52916 0.52917 h 0.529167 0.529167 v 0.52917 0.52916 h -2.116667 -2.116667 v 1.05834 1.05833 h 1.5875 1.5875 v 0.52917 0.52916 h 0.529167 0.529167 v 0.52917 0.52917 h -1.058334 -1.058333 v 1.05833 1.05833 h 1.5875 1.5875 v -0.52916 -0.52917 h 0.529167 0.529166 v 0.52917 0.52916 h 1.058334 1.058333 v 0.52917 0.52917 h 1.058333 1.058334 v -0.52917 -0.52917 h 1.5875 1.587499 v -0.52916 -0.52917 h -1.587499 -1.5875 v -0.52917 -0.52916 h 0.529166 0.529167 v -1.5875 -1.5875 h 1.058333 1.058333 v 0.52916 0.52917 h -0.529166 -0.529167 v 0.52917 0.52916 h 1.058333 1.058334 v 1.05834 1.05833 h 0.529166 0.529167 v 0.52917 0.52916 h -0.529167 -0.529166 v 0.52917 0.52917 h 1.058333 1.058333 v 0.52916 0.52917 h -1.058333 -1.058333 v 0.52917 0.52916 h 1.058333 1.058333 v 0.52917 0.52917 h -0.529166 -0.529167 v 1.05833 1.05833 h -0.529167 -0.529166 v 1.05833 1.05834 h 1.5875 1.5875 z m -2.116667,-1.05833 v -0.52917 h 0.529167 0.529166 v 0.52917 0.52916 h -0.529166 -0.529167 z m 1.058333,-2.11667 v -0.52916 h 0.529167 0.529167 v -0.52917 -0.52917 h -0.529167 -0.529167 v -0.52916 -0.52917 h 0.529167 0.529167 v 0.52917 0.52916 h 0.529166 0.529167 v -1.05833 -1.05833 h -1.058333 -1.058334 v -1.05834 -1.05833 h -0.529166 -0.529167 v -0.52917 -0.52916 h 1.058333 1.058334 v -1.05834 -1.05833 h -1.5875 -1.5875 v -0.52917 -0.52916 h -0.529167 -0.529167 v -0.52917 -0.52917 h 1.058334 1.058333 v -0.52916 -0.52917 h 1.5875 1.5875 v 0.52917 0.52916 h 0.529167 0.529166 v -0.52916 -0.52917 h 0.529167 0.529167 v -0.52917 -0.52916 h 0.529166 0.529167 v 0.52916 0.52917 h -0.529167 -0.529166 v 1.05833 1.05834 h -0.529167 -0.529167 v 0.52916 0.52917 h 1.5875 1.5875 v -0.52917 -0.52916 h -0.529166 -0.529167 v -0.52917 -0.52917 h 0.529167 0.529166 v 0.52917 0.52917 h 0.529167 0.529167 v -0.52917 -0.52917 h 0.529166 0.529167 v 0.52917 0.52917 h 1.058333 1.058334 v -0.52917 -0.52917 h 0.529166 0.529167 v 1.05834 1.05833 h 0.529166 0.529167 v 0.52917 0.52916 H 80.22566 79.696494 v 1.05834 1.05833 h -0.529167 -0.529166 v 1.05833 1.05834 h 0.529166 0.529167 v 0.52916 0.52917 h -1.058333 -1.058334 v -2.64583 -2.64584 h -0.529166 -0.529167 v -0.52916 -0.52917 h -1.058333 -1.058334 v 1.05833 1.05834 h -0.529166 -0.529167 v 0.52916 0.52917 h -0.529167 -0.529166 v 2.64583 2.64584 h -0.529167 -0.529167 v 0.52916 0.52917 h -0.529166 -0.529167 v -0.52917 -0.52916 h -0.529167 -0.529166 v 0.52916 0.52917 h -0.529167 -0.529167 z m 3.175,-5.29166 v -0.52917 h 0.529167 0.529167 v -0.52917 -0.52916 h 0.529166 0.529167 v -0.52917 -0.52917 h -0.529167 -0.529166 v 0.52917 0.52917 h -0.529167 -0.529167 v 0.52916 0.52917 h -0.529166 -0.529167 v -0.52917 -0.52916 h -0.529167 -0.529166 v 1.05833 1.05833 h 1.058333 1.058333 z m 7.408334,-3.175 v -0.52917 h -0.529167 -0.529167 v 0.52917 0.52916 h 0.529167 0.529167 z m -8.466667,-1.5875 v -1.05834 h -0.529167 -0.529166 v 1.05834 1.05833 h 0.529166 0.529167 z m -2.116667,-0.52917 v -0.52917 h -0.529166 -0.529167 v 0.52917 0.52917 h 0.529167 0.529166 z m 5.291667,7.40833 v -1.5875 h 1.5875 1.5875 v 1.5875 1.5875 h -1.5875 -1.5875 z m 2.116667,0 v -0.52916 h -0.529167 -0.529167 v 0.52916 0.52917 h 0.529167 0.529167 z m -14.816667,-2.11666 v -0.52917 h 0.529167 0.529167 v 0.52917 0.52916 h -0.529167 -0.529167 z m -3.175,-1.05834 v -0.52916 h 0.529167 0.529167 v 0.52916 0.52917 h -0.529167 -0.529167 z m 2.116667,-1.05833 v -0.52917 h -1.058333 -1.058334 v -0.52916 -0.52917 h -0.529166 -0.529167 v 0.52917 0.52916 h -0.529167 -0.529166 v -0.52916 -0.52917 h -0.529167 -0.529167 v -0.52917 -0.52916 h 0.529167 0.529167 v -0.52917 -0.52917 h 0.529166 0.529167 v -0.52916 -0.52917 h 0.529167 0.529166 v -0.52917 -0.52916 h 0.529167 0.529167 v -0.52917 -0.52917 h -1.058334 -1.058333 v 0.52917 0.52917 h -0.529167 -0.529166 v -0.52917 -0.52917 h -0.529167 -0.529167 v -1.05833 -1.05833 h 0.529167 0.529167 v 1.05833 1.05833 h 0.529166 0.529167 v -0.52916 -0.52917 h 1.5875 1.5875 v -1.05833 -1.05834 h 1.058333 1.058334 v 0.52917 0.52917 h 0.529166 0.529167 v -1.05834 -1.058334 h -0.529167 -0.529166 v -0.52917 -0.52916 h 0.529166 0.529167 v -0.52917 -0.52917 h 0.529167 0.529166 v -0.52916 -0.52917 h 0.529167 0.529166 v -0.52917 -0.52916 h 0.529167 0.529167 v -0.52917 -0.52917 h 1.058333 1.058333 v -0.52916 -0.52917 h 0.529167 0.529167 v 0.52917 0.52916 h 0.529166 0.529167 v 1.05834 1.05833 h 0.529167 0.529166 v 0.52917 0.52916 h 0.529167 0.529167 v 1.05834 1.05833 h 0.529166 0.529167 v 0.529174 0.52916 h -0.529167 -0.529166 v 0.52917 0.52917 h 1.058333 1.058333 v 0.52916 0.52917 h -0.529166 -0.529167 v 0.52917 0.52916 h -1.058333 -1.058334 v 0.52917 0.52917 h -0.529166 -0.529167 v -0.52917 -0.52917 h -0.529167 -0.529166 v 0.52917 0.52917 h -0.529167 -0.529167 v -0.52917 -0.52917 h -1.058333 -1.058333 v 0.52917 0.52917 h -0.529167 -0.529167 v 0.52916 0.52917 h -1.058333 -1.058333 v 1.05833 1.05834 h -0.529167 -0.529166 v 0.52916 0.52917 h -0.529167 -0.529167 v -0.52917 -0.52916 h -0.529166 -0.529167 v 1.05833 1.05833 h 0.529167 0.529166 v 0.52917 0.52917 h -0.529166 -0.529167 z m -1.058333,-2.11667 v -0.52916 h 0.529166 0.529167 v -0.52917 -0.52917 h 0.529167 0.529166 v 0.52917 0.52917 h 0.529167 0.529167 v -2.11667 -2.11667 h 0.529166 0.529167 v -0.52916 -0.52917 h -0.529167 -0.529166 v -0.52917 -0.52916 h -0.529167 -0.529167 v 2.11666 2.11667 h -1.5875 -1.5875 v 0.52917 0.52916 h 0.529167 0.529167 v 0.52917 0.52917 h -0.529167 -0.529167 v 0.52916 0.52917 h 0.529167 0.529167 z m 6.349999,-4.23333 v -0.52917 h 0.529167 0.529167 v -0.52916 -0.52917 h 1.058333 1.058333 v 0.52917 0.52916 h 0.529167 0.529167 v -0.52916 -0.52917 h 0.529166 0.529167 v 0.52917 0.52916 h 0.529167 0.529166 v -0.52916 -0.52917 h 0.529167 0.529167 v -0.52917 -0.52916 h -0.529167 -0.529167 v 0.52916 0.52917 h -0.529166 -0.529167 v -0.52917 -0.52916 h -0.529167 -0.529166 v -1.05834 -1.058334 h 1.058333 1.058333 v -1.05833 -1.05834 h -0.529166 -0.529167 v -0.52916 -0.52917 h -1.5875 -1.5875 v 0.52917 0.52916 h -0.529167 -0.529166 v 0.52917 0.52917 h -0.529167 -0.529167 v -0.52917 -0.52917 h -0.529166 -0.529167 v 0.52917 0.52917 h -0.529166 -0.529167 v 0.52916 0.52917 h 0.529167 0.529166 v 0.529174 0.52916 h 0.529167 0.529166 v 0.52917 0.52917 h -0.529166 -0.529167 v 1.5875 1.5875 h 0.529167 0.529166 z m 3.175,-2.11667 v -0.52916 h 0.529167 0.529167 v 0.52916 0.52917 h -0.529167 -0.529167 z m -2.116666,-1.05833 v -0.52917 h -0.529167 -0.529167 v -0.52916 -0.529174 h 0.529167 0.529167 v -0.52917 -0.52916 h 0.529166 0.529167 v -0.52917 -0.52917 h 0.529167 0.529166 v 0.52917 0.52917 h -0.529166 -0.529167 v 0.52916 0.52917 h 0.529167 0.529166 v 0.529174 0.52916 h -0.529166 -0.529167 v 0.52917 0.52917 h -0.529167 -0.529166 z m 1.058333,-1.05833 v -0.529174 h -0.529167 -0.529166 v 0.529174 0.52916 h 0.529166 0.529167 z m 2.116667,-2.116674 v -0.52917 h 0.529166 0.529167 v 0.52917 0.52917 h -0.529167 -0.529166 z m 0,-3.175 v -0.52917 h -0.529167 -0.529167 v 0.52917 0.52917 h 0.529167 0.529167 z m -11.641667,6.350004 v -0.52917 h 0.529167 0.529167 v 0.52917 0.52917 h -0.529167 -0.529167 z m 17.991667,19.57916 v -1.05833 h -0.529167 -0.529167 v 1.05833 1.05834 h 0.529167 0.529167 z m -14.816667,-4.76249 v -0.52917 h -0.529166 -0.529167 v 0.52917 0.52916 h 0.529167 0.529166 z m 4.233333,-1.05834 v -0.52916 h -1.058333 -1.058333 v 0.52916 0.52917 h 1.058333 1.058333 z m -12.699999,-2.11666 v -0.52917 h -0.529167 -0.529167 v 0.52917 0.52916 h 0.529167 0.529167 z m 0,-2.11667 v -0.52917 h -0.529167 -0.529167 v 0.52917 0.52917 h 0.529167 0.529167 z m 26.458333,-6.35 v -0.52917 h 0.529166 0.529167 v 0.52917 0.52917 h 1.058333 1.058333 v -0.52917 -0.52917 h -0.529166 -0.529167 v -1.05833 -1.05833 h 0.529167 0.529166 v -0.52917 -0.52917 h -0.529166 -0.529167 v 0.52917 0.52917 h -1.058333 -1.058333 v -0.52917 -0.52917 h -0.529167 -0.529167 v 1.05834 1.05833 h 0.529167 0.529167 v 0.52917 0.52916 h -0.529167 -0.529167 v 0.52917 0.52917 h 0.529167 0.529167 z M 58.529828,94.748956 v -3.70417 h -3.704167 -3.704167 v 3.70417 3.70417 h 3.704167 3.704167 z m -6.35,0 v -2.64583 h 2.645833 2.645833 v 2.64583 2.64583 h -2.645833 -2.645833 z m 4.233333,0 v -1.5875 h -1.5875 -1.5875 v 1.5875 1.5875 h 1.5875 1.5875 z m 25.399999,0 v -3.70417 h -3.704166 -3.704167 v 3.70417 3.70417 h 3.704167 3.704166 z m -6.349999,0 v -2.64583 h 2.645833 2.645833 v 2.64583 2.64583 h -2.645833 -2.645833 z m 4.233333,0 v -1.5875 h -1.5875 -1.5875 v 1.5875 1.5875 h 1.5875 1.5875 z m -6.35,-2.11667 v -0.52916 h -0.529167 -0.529166 v -0.52917 -0.52917 h -0.529167 -0.529167 v 0.52917 0.52917 h 0.529167 0.529167 v 0.52916 0.52917 h 0.529166 0.529167 z m -6.35,-1.05833 v -0.52917 h -0.529167 -0.529166 v 0.52917 0.52917 h 0.529166 0.529167 z"
       id="path1" /></g></svg>
