<?xml version="1.0" encoding="UTF-8" standalone="no"?>
<!-- Created with Inkscape (http://www.inkscape.org/) -->

<svg
   width="34.924999mm"
   height="34.924995mm"
   viewBox="0 0 34.924999 34.924995"
   version="1.1"
   id="svg1"
   xml:space="preserve"
   inkscape:version="1.4 (e7c3feb100, 2024-10-09)"
   sodipodi:docname="join.svg"
   xmlns:inkscape="http://www.inkscape.org/namespaces/inkscape"
   xmlns:sodipodi="http://sodipodi.sourceforge.net/DTD/sodipodi-0.dtd"
   xmlns="http://www.w3.org/2000/svg"
   xmlns:svg="http://www.w3.org/2000/svg"><sodipodi:namedview
     id="namedview1"
     pagecolor="#ffffff"
     bordercolor="#000000"
     borderopacity="0.25"
     inkscape:showpageshadow="2"
     inkscape:pageopacity="0.0"
     inkscape:pagecheckerboard="0"
     inkscape:deskcolor="#d1d1d1"
     inkscape:document-units="mm"
     inkscape:zoom="10.276307"
     inkscape:cx="64.322716"
     inkscape:cy="51.574946"
     inkscape:window-width="2880"
     inkscape:window-height="1839"
     inkscape:window-x="0"
     inkscape:window-y="0"
     inkscape:window-maximized="1"
     inkscape:current-layer="layer1" /><defs
     id="defs1" /><g
     inkscape:label="Layer 1"
     inkscape:groupmode="layer"
     id="layer1"
     transform="translate(-49.004828,-88.928126)"><path
       style="fill:#000000"
       d="M 49.044371,106.39572 V 88.933208 h 17.462499 17.4625 v 17.462512 17.4625 H 66.50687 49.044371 Z m 9.524999,11.64166 v -3.70416 h -3.704166 -3.704167 v 3.70416 3.70417 h 3.704167 3.704166 z m -6.349999,0 v -2.64583 h 2.645833 2.645833 v 2.64583 2.64584 h -2.645833 -2.645833 z m 4.233333,0 v -1.5875 h -1.5875 -1.5875 v 1.5875 1.5875 h 1.5875 1.5875 z m 5.291666,3.175 v -0.52916 h 0.529167 0.529167 v 0.52916 0.52917 h 0.529166 0.529167 v -0.52917 -0.52916 h 0.529167 0.529166 v 0.52916 0.52917 h 1.058334 1.058333 v -0.52917 -0.52916 h 0.529167 0.529166 v 0.52916 0.52917 h 1.058334 1.058333 v -0.52917 -0.52916 h 1.058333 1.058333 v 0.52916 0.52917 h 0.529167 0.529167 v -1.5875 -1.5875 h 1.058333 1.058333 v -0.52917 -0.52916 h 0.529167 0.529167 v 2.11666 2.11667 h 0.529166 0.529167 v -1.05833 -1.05834 h 1.058333 1.058334 v 1.05834 1.05833 h 0.529166 0.529167 v -1.05833 -1.05834 h 0.529167 0.529166 v -1.05833 -1.05833 H 81.323537 80.79437 v -0.52917 -0.52917 h 0.529167 0.529166 v -0.52916 -0.52917 H 81.323537 80.79437 v -0.52917 -0.52916 h 0.529167 0.529166 v -0.52917 -0.52917 H 80.79437 79.736037 v -0.52916 -0.52917 h 1.058333 1.058333 v -1.5875 -1.5875 H 81.323537 80.79437 v -1.05833 -1.05834 h 0.529167 0.529166 v -0.52916 -0.52917 H 79.736037 77.61937 v 0.52917 0.52916 h -0.529167 -0.529166 v -0.52916 -0.52917 H 76.03187 75.502703 v 0.52917 0.52916 H 74.973537 74.44437 v -1.05833 -1.05833 h 1.058333 1.058334 v -0.52917 -0.52917 H 75.502703 74.44437 v -0.52916 -0.52917 h 1.058333 1.058334 v -0.52917 -0.52916 H 76.03187 75.502703 v -0.52917 -0.52917 h 0.529167 0.529167 v -0.52916 -0.529172 H 76.03187 75.502703 v 0.529172 0.52916 H 74.973537 74.44437 v -0.52916 -0.529172 h -0.529167 -0.529166 v -1.05834 -1.05833 H 72.85687 72.327703 v -0.52917 -0.52916 H 71.798537 71.26937 v -0.52917 -0.52917 h 0.529167 0.529166 v -0.52916 -0.52917 h 0.529167 0.529167 v -1.05833 -1.05834 H 72.85687 72.327703 v -0.52916 -0.52917 h -1.5875 -1.587499 v 0.52917 0.52916 H 68.623537 68.09437 v 0.52917 0.52917 h -1.058333 -1.058333 v 0.52916 0.52917 H 65.448537 64.91937 v 0.52917 0.52916 h 0.529167 0.529167 v -0.52916 -0.52917 h 1.058333 1.058333 v 0.52917 0.52916 h 0.529167 0.529167 v -0.52916 -0.52917 h 0.529166 0.529167 v 1.05833 1.05834 h -1.5875 -1.5875 v 0.52916 0.52917 H 66.50687 65.977704 v 0.52917 0.52916 H 65.448537 64.91937 v -0.52916 -0.52917 h -0.529166 -0.529167 v 0.52917 0.52916 h 0.529167 0.529166 v 0.52917 0.52917 h 0.529167 0.529167 v 0.529172 0.52916 H 64.91937 63.861037 v -0.52916 -0.529172 H 61.74437 59.627704 v 0.529172 0.52916 h 0.529166 0.529167 v 0.52917 0.52917 h -1.5875 -1.5875 v -0.52917 -0.52917 h 0.529167 0.529166 v -0.52916 -0.529172 h -1.058333 -1.058333 v 0.529172 0.52916 H 55.923537 55.39437 v -0.52916 -0.529172 h -0.529166 -0.529167 v 0.529172 0.52916 h 0.529167 0.529166 v 0.52917 0.52917 h -1.058333 -1.058333 v -0.52917 -0.52917 h -0.529167 -0.529166 v -0.52916 -0.529172 h -0.529167 -0.529167 v 0.529172 0.52916 h 0.529167 0.529167 v 1.05834 1.05833 h -0.529167 -0.529167 v 0.52917 0.52916 h 0.529167 0.529167 v 0.52917 0.52917 h -0.529167 -0.529167 v 2.11666 2.11667 h 0.529167 0.529167 v -1.05833 -1.05834 h 0.529166 0.529167 v 1.05834 1.05833 h 0.529167 0.529166 v 0.52917 0.52916 h -0.529166 -0.529167 v 0.52917 0.52917 h 0.529167 0.529166 v 1.05833 1.05833 h 2.116667 2.116666 v -0.52916 -0.52917 h 0.529167 0.529167 v 1.05833 1.05834 h 0.529166 0.529167 v 0.52916 0.52917 H 60.15687 59.627704 v 0.52917 0.52916 h 0.529166 0.529167 v 0.52917 0.52917 H 60.15687 59.627704 v 0.52916 0.52917 h 0.529166 0.529167 v 0.52917 0.52916 h 0.529167 0.529166 v 0.52917 0.52917 h -1.058333 -1.058333 v 0.52916 0.52917 h 1.058333 1.058333 z m 6.35,-1.05833 v -0.52917 h -1.5875 -1.5875 v -0.52916 -0.52917 h -0.529166 -0.529167 v -0.52917 -0.52916 h 0.529167 0.529166 v -0.52917 -0.52917 h -0.529166 -0.529167 v -0.52916 -0.52917 H 63.33187 62.802704 v -0.52917 -0.52916 H 61.74437 60.686037 v -1.5875 -1.5875 H 59.627704 58.56937 v 0.52916 0.52917 h -1.5875 -1.5875 v -1.05833 -1.05834 h 0.529167 0.529167 v 0.52917 0.52917 h 1.058333 1.058333 v -0.52917 -0.52917 h -0.529166 -0.529167 v -0.52916 -0.52917 H 56.98187 56.452704 v -1.05833 -1.05834 H 55.923537 55.39437 v -0.52916 -0.52917 h 0.529167 0.529167 v 0.52917 0.52916 h 1.058333 1.058333 v -0.52916 -0.52917 h -0.529166 -0.529167 v -0.52917 -0.52916 h 0.529167 0.529166 v 0.52916 0.52917 h 0.529167 0.529167 v -0.52917 -0.52916 h 0.529166 0.529167 v 0.52916 0.52917 h 0.529167 0.529166 v -1.05833 -1.05834 h 0.529167 0.529167 v 0.52917 0.52917 h 0.529166 0.529167 v -0.52917 -0.52917 h 1.058333 1.058334 v -0.52916 -0.52917 h 1.058333 1.058333 v -0.52917 -0.52916 h 1.058334 1.058333 v -0.52917 -0.52917 H 69.68187 69.152704 v -0.52916 -0.529172 h 0.529166 0.529167 v -0.52917 -0.52917 H 69.68187 69.152704 v -0.52916 -0.52917 h 0.529166 0.529167 v -0.52917 -0.52916 h 0.529166 0.529167 v 0.52916 0.52917 h 0.529167 0.529166 v 1.05833 1.05834 h 0.529167 0.529167 v 0.529172 0.52916 H 72.85687 72.327703 v 0.52917 0.52917 h 1.058334 1.058333 v 0.52916 0.52917 h -0.529167 -0.529166 v 0.52917 0.52916 H 72.327703 71.26937 v 0.52917 0.52917 h -0.529167 -0.529166 v -0.52917 -0.52917 H 69.68187 69.152704 v 0.52917 0.52917 H 68.623537 68.09437 v -0.52917 -0.52917 h -1.058333 -1.058333 v 0.52917 0.52917 H 64.91937 63.861037 v 0.52916 0.52917 h 0.529167 0.529166 v 0.52917 0.52916 h 1.058334 1.058333 v -0.52916 -0.52917 h 1.5875 1.5875 v 0.52917 0.52916 h 0.529166 0.529167 v -0.52916 -0.52917 h 0.529167 0.529166 v -0.52917 -0.52916 h 0.529167 0.529167 v 0.52916 0.52917 H 72.85687 72.327703 v 1.05833 1.05834 H 71.798537 71.26937 v 0.52916 0.52917 h 1.5875 1.5875 v -0.52917 -0.52916 h -0.529167 -0.529166 v -0.52917 -0.52917 h 0.529166 0.529167 v 0.52917 0.52917 h 0.529167 0.529166 v -0.52917 -0.52917 h 0.529167 0.529167 v 0.52917 0.52917 h 1.058333 1.058333 v -0.52917 -0.52917 h 0.529167 0.529167 v 1.05834 1.05833 h 0.529166 0.529167 v 0.52917 0.52916 h -0.529167 -0.529166 v 1.05834 1.05833 H 79.20687 78.677703 v 1.05833 1.05834 h 0.529167 0.529167 v 0.52916 0.52917 h 0.529166 0.529167 v 0.52917 0.52916 h -0.529167 -0.529166 v 0.52917 0.52917 h 0.529166 0.529167 v 1.05833 1.05833 h -0.529167 -0.529166 v -1.05833 -1.05833 H 78.677703 77.61937 v -0.52917 -0.52917 h 1.058333 1.058334 v -0.52916 -0.52917 H 78.677703 77.61937 v -2.64583 -2.64584 h -0.529167 -0.529166 v -0.52916 -0.52917 H 75.502703 74.44437 v 1.05833 1.05834 h -0.529167 -0.529166 v 0.52916 0.52917 H 72.85687 72.327703 v 2.64583 2.64584 H 71.798537 71.26937 v 0.52916 0.52917 h -1.058333 -1.058333 v -0.52917 -0.52916 h 0.529166 0.529167 v -0.52917 -0.52917 H 69.68187 69.152704 v -1.05833 -1.05833 H 68.623537 68.09437 v 1.05833 1.05833 h -0.529166 -0.529167 v 0.52917 0.52917 h 0.529167 0.529166 v 1.05833 1.05833 h 0.529167 0.529167 v 0.52917 0.52917 H 68.623537 68.09437 Z m -2.116666,-2.11667 v -0.52916 H 65.448537 64.91937 v 0.52916 0.52917 h 0.529167 0.529167 z m 1.058333,-2.11666 v -0.52917 H 66.50687 65.977704 v 0.52917 0.52916 h 0.529166 0.529167 z m 4.233333,-1.05834 v -0.52916 h -0.529167 -0.529166 v 0.52916 0.52917 h 0.529166 0.529167 z m -7.408333,-1.5875 v -1.05833 h 0.529167 0.529166 v -0.52917 -0.52916 h -0.529166 -0.529167 v -0.52917 -0.52917 H 63.33187 62.802704 v -0.52916 -0.52917 h 0.529166 0.529167 v -0.52917 -0.52916 h 0.529167 0.529166 v 1.05833 1.05833 h 0.529167 0.529167 v 1.05834 1.05833 h 0.529166 0.529167 v 0.52917 0.52916 H 66.50687 65.977704 v 0.52917 0.52917 h 1.058333 1.058333 v -0.52917 -0.52917 h 0.529167 0.529167 v -0.52916 -0.52917 h 1.587499 1.5875 v -0.52917 -0.52916 h 0.529167 0.529167 v -0.52917 -0.52917 H 72.85687 72.327703 v 0.52917 0.52917 H 71.798537 71.26937 v -1.05834 -1.05833 h -0.529167 -0.529166 v -1.05833 -1.05834 H 69.68187 69.152704 v 1.05834 1.05833 h -1.5875 -1.5875 v -0.52917 -0.52916 H 65.448537 64.91937 v -0.52917 -0.52917 h -3.175 -3.175 v 0.52917 0.52917 h -0.529166 -0.529167 v 0.52916 0.52917 h 0.529167 0.529166 v 0.52917 0.52916 h 0.529167 0.529167 v -0.52916 -0.52917 h 0.529166 0.529167 v 1.05833 1.05834 h 0.529167 0.529166 v 1.05833 1.05833 h 0.529167 0.529167 v 0.52917 0.52917 h 0.529166 0.529167 z m 3.175,-1.5875 v -0.52916 h 1.058333 1.058334 v 0.52916 0.52917 H 68.09437 67.036037 Z m -5.291667,-1.05833 v -0.52917 h 0.529167 0.529167 v 0.52917 0.52917 H 62.273537 61.74437 Z m 7.408334,-1.05833 v -0.52917 h 0.529166 0.529167 v 0.52917 0.52916 H 69.68187 69.152704 Z m 9.524999,0 v -0.52917 H 78.148537 77.61937 v 0.52917 0.52916 h 0.529167 0.529166 z M 68.09437,107.45405 v -0.52917 h -0.529166 -0.529167 v 0.52917 0.52917 h 0.529167 0.529166 z m 1.058334,-4.23333 v -0.52917 H 68.623537 68.09437 v 0.52917 0.52916 h 0.529167 0.529167 z m 2.116666,0 v -0.52917 h 0.529167 0.529166 v -0.52917 -0.52916 H 71.798537 71.26937 v 0.52916 0.52917 h -0.529167 -0.529166 v 0.52917 0.52916 h 0.529166 0.529167 z m 1.058333,-3.175 V 99.516548 H 71.798537 71.26937 v 0.529172 0.52916 h 0.529167 0.529166 z M 71.26937,97.929048 v -0.52917 h -0.529167 -0.529166 v 0.52917 0.52916 h 0.529166 0.529167 z M 60.686037,118.03738 v -0.52916 h 0.529167 0.529166 v -0.52917 -0.52917 h 0.529167 0.529167 v 1.05834 1.05833 H 61.74437 60.686037 Z m 12.7,-3.175 v -1.5875 h 1.5875 1.5875 v 1.5875 1.5875 h -1.5875 -1.5875 z m 2.116666,0 v -0.52916 H 74.973537 74.44437 v 0.52916 0.52917 h 0.529167 0.529166 z m -22.224999,-8.46666 v -0.52917 h -0.529167 -0.529166 v -0.52917 -0.52916 h 1.058333 1.058333 v -0.52917 -0.52917 h -0.529166 -0.529167 v -0.52916 -0.52917 h 0.529167 0.529166 v 0.52917 0.52916 h 0.529167 0.529166 v -0.52916 -0.52917 h 2.645834 2.645833 v -0.52917 -0.52916 h 0.529167 0.529166 v -0.52917 -0.52917 h 0.529167 0.529167 v 0.52917 0.52917 h 0.529166 0.529167 v 0.52916 0.52917 H 63.33187 62.802704 v -0.52917 -0.52916 H 62.273537 61.74437 v 0.52916 0.52917 h -0.529166 -0.529167 v 0.52917 0.52916 H 58.56937 56.452704 v 0.52917 0.52917 H 55.39437 54.336037 v 1.05833 1.05833 h -0.529166 -0.529167 z m 12.7,-5.29167 v -0.52917 h 0.529166 0.529167 v -0.52916 -0.529172 H 66.50687 65.977704 v -0.52917 -0.52917 h 0.529166 0.529167 v -0.52916 -0.52917 h 0.529167 0.529166 v 0.52917 0.52916 h -0.529166 -0.529167 v 0.52917 0.52917 h 0.529167 0.529166 v 0.529172 0.52916 h -0.529166 -0.529167 v 0.52917 0.52917 H 66.50687 65.977704 Z m 2.116666,-7.408342 v -0.52916 h 0.529167 0.529167 v 0.52916 0.52917 H 68.623537 68.09437 Z m 2.116667,0 v -0.52916 h 0.529166 0.529167 v -0.52917 -0.52917 h 0.529167 0.529166 v 1.05834 1.05833 H 71.26937 70.211037 Z m 5.291666,26.987512 v -1.05834 H 74.973537 74.44437 v 1.05834 1.05833 h 0.529167 0.529166 z m -23.283332,-7.9375 v -0.52917 h -0.529167 -0.529167 v 0.52917 0.52916 h 0.529167 0.529167 z m 0,-2.11667 v -0.52917 h -0.529167 -0.529167 v 0.52917 0.52917 h 0.529167 0.529167 z m 26.458332,-6.35 v -0.52917 h 0.529167 0.529167 v 0.52917 0.52917 h 1.058333 1.058333 v -0.52917 -0.52917 H 81.323537 80.79437 v -1.05833 -1.05833 h 0.529167 0.529166 v -0.52917 -0.52917 H 81.323537 80.79437 v 0.52917 0.52917 h -1.058333 -1.058334 v -0.52917 -0.52917 H 78.148537 77.61937 v 1.05834 1.05833 h 0.529167 0.529166 v 0.52917 0.52916 H 78.148537 77.61937 v 0.52917 0.52917 h 0.529167 0.529166 z M 58.56937,94.754048 v -3.70417 h -3.704166 -3.704167 v 3.70417 3.70416 h 3.704167 3.704166 z m -6.349999,0 v -2.64584 h 2.645833 2.645833 v 2.64584 2.64583 h -2.645833 -2.645833 z m 4.233333,0 v -1.5875 h -1.5875 -1.5875 v 1.5875 1.5875 h 1.5875 1.5875 z m 4.233333,3.175 v -0.52917 h 0.529167 0.529166 v 0.52917 0.52916 h 0.529167 0.529167 v -0.52916 -0.52917 H 62.273537 61.74437 v -1.05833 -1.05834 h -0.529166 -0.529167 v 0.52917 0.52917 H 60.15687 59.627704 v 1.05833 1.05833 h 0.529166 0.529167 z m 21.166666,-3.175 v -3.70417 H 78.148537 74.44437 v 3.70417 3.70416 h 3.704167 3.704166 z m -6.35,0 v -2.64584 h 2.645834 2.645833 v 2.64584 2.64583 h -2.645833 -2.645834 z m 4.233334,0 v -1.5875 h -1.5875 -1.5875 v 1.5875 1.5875 h 1.5875 1.5875 z m -15.875,1.05833 v -0.52917 H 63.33187 62.802704 v 0.52917 0.52917 h 0.529166 0.529167 z m -1.058333,-2.11667 v -0.52916 h 1.058333 1.058333 v -1.05834 -1.05833 h -1.5875 -1.5875 v 1.05833 1.05834 h -0.529166 -0.529167 v 0.52916 0.52917 h 1.058333 1.058334 z m 4.233333,-2.11666 v -0.52917 H 66.50687 65.977704 v 0.52917 0.52916 h 0.529166 0.529167 z"
       id="path1" /></g></svg>
